<svg width="16" height="10" viewBox="0 0 16 10" fill="none" xmlns="http://www.w3.org/2000/svg">
<path fill-rule="evenodd" clip-rule="evenodd" d="M16 4.98665C16 5.53894 15.5523 5.98665 15 5.98665L3.41137 5.98666L5.71436 8.29348C6.10456 8.68433 6.10403 9.31749 5.71318 9.70769C5.32233 10.0979 4.68917 10.0974 4.29897 9.70652L0.292291 5.69319C0.104706 5.50529 -0.000457993 5.25051 -1.54767e-05 4.985C0.00042704 4.71949 0.106439 4.46506 0.29465 4.27779L4.30133 0.291125C4.69283 -0.0984207 5.32599 -0.0968355 5.71554 0.294665C6.10508 0.686166 6.1035 1.31933 5.712 1.70887L3.42277 3.98666L15 3.98665C15.5523 3.98665 16 4.43437 16 4.98665Z" fill="#008580"/>
</svg>
